<svg xmlns="http://www.w3.org/2000/svg" xml:space="preserve" width="192" height="192" data-version="2">
    <path fill="#f7d65a" d="M116.91 84.58q24.96 6.54 24.96 27.74 0 8.8-2.67 13.73-2.67 4.92-5.98 7.93-10.82 10-37.29 10H50.28v-8.27q7.9 0 9.85-1.39 1.96-1.39 2.34-2.97.37-1.58.37-3.84V47.65q0-4.88-1.65-6.09-3.01-2.1-10.98-2.1v-8.27h41.88q30.46 0 39.93 14.43 3.76 5.72 3.76 13.31 0 17.9-18.87 25.65m-26.92-2.41q21.05-.45 25.64-12.33 1.5-3.91 1.5-8.73 0-10.15-5.98-15.9-5.97-5.75-20.49-5.75h-10.9v42.71Zm4.51 53.54q22.41 0 27.22-14.59 1.43-4.29 1.43-9.32 0-10.38-7.86-16.47-7.86-6.09-21.54-6.39H79.76v46.77Z" paint-order="stroke"/>
    <rect width="91.66" height="112.79" x="-45.83" y="-56.395" fill="none" rx="0" ry="0" transform="translate(96.54 88.085)"/>
</svg>
